# xmcd
#
# Track frame offsets: 
#        150
#        10426
#        23029
#        35461
#        49397
#        59890
#        71714
#        84314
#        95371
#        109202
#        123770
#        137172
#        149384
#        161667
#
# Disc length: 2332 seconds
#
# Revision: 0
# Processed by: cddbd v1.5.2PL0 Copyright (c) Steve Scherf et al.
# Submitted via: ExactAudioCopy v0.99pb5
#
DISCID=c8091a0e
DTITLE=FREDDY KING - THE KING YEARS 1961-1962
DYEAR=1900
DGENRE=Blues
TTITLE0=See See Baby
TTITLE1=Lonesome Whistle Blues
TTITLE2=Talkin' Care Of Business
TTITLE3=Have You Ever Loved A Woman
TTITLE4=You Know That You Love Me (But You Never Tell Me So)
TTITLE5=I'm Tore Down
TTITLE6=I LoveThe Woman
TTITLE7=Let Me Be (Stay Away From Me)
TTITLE8=It's To Bad Things Are Going So Tough 
TTITLE9=You've Got To Love Her With A Feeling
TTITLE10=If You Believe (In What You Do)
TTITLE11=You Mean,Mean Woman (How Can Your Love Be True)
TTITLE12=Do The President Twist (With Lula Reed)*
TTITLE13=You Can't Hide (With Lula Reed)*
EXTD=
EXTT0=
EXTT1=
EXTT2=
EXTT3=
EXTT4=
EXTT5=
EXTT6=
EXTT7=
EXTT8=
EXTT9=
EXTT10=
EXTT11=
EXTT12=
EXTT13=
PLAYORDER=
